<svg width="388" height="64" viewBox="0 0 388 64" fill="none" xmlns="http://www.w3.org/2000/svg">
<g clip-path="url(#clip0_22_138)">
<path fill-rule="evenodd" clip-rule="evenodd" d="M0 20.5285C0 9.19093 9.16697 0 20.475 0H42.525C53.833 0 63 9.19093 63 20.5285V42.6361C63 53.9737 53.833 63.1647 42.525 63.1647H20.475C9.16697 63.1647 0 53.9737 0 42.6361V20.5285ZM46.5985 10.489C47.6413 10.0139 48.825 10.7783 48.825 11.9266V31.2862C48.825 31.9056 48.4639 32.4677 47.9015 32.7239L35.3015 38.4637C34.2587 38.9387 33.075 38.1744 33.075 37.026V17.6664C33.075 17.0471 33.4361 16.4849 33.9985 16.2287L46.5985 10.489ZM16.4216 10.5366C15.3769 10.0428 14.175 10.807 14.175 11.9649V48.4024C14.175 49.0137 14.5269 49.5701 15.0784 49.8308L27.6784 55.7863C28.7231 56.2801 29.925 55.516 29.925 54.358V17.9205C29.925 17.3092 29.5731 16.7528 29.0216 16.4921L16.4216 10.5366Z" fill="url(#paint0_linear_22_138)"/>
</g>
<path d="M87.04 54V14.704H73.792V9.2H107.008V14.704H93.824V54H87.04ZM109.726 54V22.256H115.806L116.382 28.272C117.491 26.1813 119.027 24.5387 120.99 23.344C122.995 22.1067 125.406 21.488 128.222 21.488V28.592H126.366C124.488 28.592 122.803 28.912 121.31 29.552C119.859 30.1493 118.686 31.1947 117.79 32.688C116.936 34.1387 116.51 36.1653 116.51 38.768V54H109.726ZM144.79 54.768C142.102 54.768 139.883 54.32 138.134 53.424C136.385 52.528 135.083 51.3547 134.23 49.904C133.377 48.4107 132.95 46.7893 132.95 45.04C132.95 41.968 134.145 39.536 136.534 37.744C138.923 35.952 142.337 35.056 146.774 35.056H155.094V34.48C155.094 32.0053 154.411 30.1493 153.046 28.912C151.723 27.6747 149.995 27.056 147.862 27.056C145.985 27.056 144.342 27.5253 142.934 28.464C141.569 29.36 140.737 30.704 140.438 32.496H133.654C133.867 30.192 134.635 28.2293 135.958 26.608C137.323 24.944 139.03 23.6853 141.078 22.832C143.169 21.936 145.451 21.488 147.926 21.488C152.363 21.488 155.798 22.6613 158.23 25.008C160.662 27.312 161.878 30.4693 161.878 34.48V54H155.99L155.414 48.56C154.518 50.3093 153.217 51.7813 151.51 52.976C149.803 54.1707 147.563 54.768 144.79 54.768ZM146.134 49.264C147.969 49.264 149.505 48.8373 150.742 47.984C152.022 47.088 153.003 45.9147 153.686 44.464C154.411 43.0133 154.859 41.4133 155.03 39.664H147.478C144.79 39.664 142.87 40.1333 141.718 41.072C140.609 42.0107 140.054 43.184 140.054 44.592C140.054 46.0427 140.587 47.1947 141.654 48.048C142.763 48.8587 144.257 49.264 146.134 49.264ZM169.788 54V22.256H175.804L176.316 27.824C177.297 25.8613 178.727 24.3253 180.604 23.216C182.524 22.064 184.721 21.488 187.196 21.488C191.036 21.488 194.044 22.6827 196.22 25.072C198.439 27.4613 199.548 31.024 199.548 35.76V54H192.828V36.464C192.828 30.32 190.311 27.248 185.276 27.248C182.759 27.248 180.668 28.144 179.004 29.936C177.383 31.728 176.572 34.288 176.572 37.616V54H169.788ZM220.21 54.768C216.199 54.768 212.893 53.7867 210.29 51.824C207.687 49.8613 206.194 47.2587 205.81 44.016H212.658C212.999 45.4667 213.81 46.7253 215.09 47.792C216.37 48.816 218.055 49.328 220.146 49.328C222.194 49.328 223.687 48.9013 224.626 48.048C225.565 47.1947 226.034 46.2133 226.034 45.104C226.034 43.4827 225.373 42.3947 224.05 41.84C222.77 41.2427 220.978 40.7093 218.674 40.24C216.882 39.856 215.09 39.344 213.298 38.704C211.549 38.064 210.077 37.168 208.882 36.016C207.73 34.8213 207.154 33.2213 207.154 31.216C207.154 28.4427 208.221 26.1387 210.354 24.304C212.487 22.4267 215.474 21.488 219.314 21.488C222.855 21.488 225.714 22.3413 227.89 24.048C230.109 25.7547 231.41 28.1653 231.794 31.28H225.266C225.053 29.9147 224.413 28.848 223.346 28.08C222.322 27.312 220.935 26.928 219.186 26.928C217.479 26.928 216.157 27.2907 215.218 28.016C214.279 28.6987 213.81 29.5947 213.81 30.704C213.81 31.8133 214.45 32.688 215.73 33.328C217.053 33.968 218.781 34.544 220.914 35.056C223.047 35.5253 225.01 36.08 226.802 36.72C228.637 37.3173 230.109 38.2133 231.218 39.408C232.327 40.6027 232.882 42.352 232.882 44.656C232.925 47.5573 231.794 49.968 229.49 51.888C227.229 53.808 224.135 54.768 220.21 54.768ZM260.512 54.768C256.075 54.768 252.235 53.808 248.992 51.888C245.792 49.9253 243.317 47.216 241.568 43.76C239.819 40.2613 238.944 36.2293 238.944 31.664C238.944 27.056 239.819 23.024 241.568 19.568C243.317 16.0693 245.792 13.3387 248.992 11.376C252.235 9.41333 256.075 8.432 260.512 8.432C265.76 8.432 270.048 9.712 273.376 12.272C276.704 14.832 278.816 18.416 279.712 23.024H272.16C271.563 20.4213 270.283 18.352 268.32 16.816C266.357 15.28 263.733 14.512 260.448 14.512C255.968 14.512 252.427 16.048 249.824 19.12C247.221 22.1493 245.92 26.3307 245.92 31.664C245.92 36.9547 247.221 41.1147 249.824 44.144C252.427 47.1733 255.968 48.688 260.448 48.688C263.733 48.688 266.357 47.9627 268.32 46.512C270.283 45.0613 271.563 43.0773 272.16 40.56H279.712C278.816 44.9973 276.704 48.4747 273.376 50.992C270.048 53.5093 265.76 54.768 260.512 54.768ZM297.665 54.768C294.977 54.768 292.758 54.32 291.009 53.424C289.26 52.528 287.958 51.3547 287.105 49.904C286.252 48.4107 285.825 46.7893 285.825 45.04C285.825 41.968 287.02 39.536 289.409 37.744C291.798 35.952 295.212 35.056 299.649 35.056H307.969V34.48C307.969 32.0053 307.286 30.1493 305.921 28.912C304.598 27.6747 302.87 27.056 300.737 27.056C298.86 27.056 297.217 27.5253 295.809 28.464C294.444 29.36 293.612 30.704 293.313 32.496H286.529C286.742 30.192 287.51 28.2293 288.833 26.608C290.198 24.944 291.905 23.6853 293.953 22.832C296.044 21.936 298.326 21.488 300.801 21.488C305.238 21.488 308.673 22.6613 311.105 25.008C313.537 27.312 314.753 30.4693 314.753 34.48V54H308.865L308.289 48.56C307.393 50.3093 306.092 51.7813 304.385 52.976C302.678 54.1707 300.438 54.768 297.665 54.768ZM299.009 49.264C300.844 49.264 302.38 48.8373 303.617 47.984C304.897 47.088 305.878 45.9147 306.561 44.464C307.286 43.0133 307.734 41.4133 307.905 39.664H300.353C297.665 39.664 295.745 40.1333 294.593 41.072C293.484 42.0107 292.929 43.184 292.929 44.592C292.929 46.0427 293.462 47.1947 294.529 48.048C295.638 48.8587 297.132 49.264 299.009 49.264ZM322.663 54V22.256H328.743L329.319 28.272C330.428 26.1813 331.964 24.5387 333.927 23.344C335.932 22.1067 338.343 21.488 341.159 21.488V28.592H339.303C337.426 28.592 335.74 28.912 334.247 29.552C332.796 30.1493 331.623 31.1947 330.727 32.688C329.874 34.1387 329.447 36.1653 329.447 38.768V54H322.663ZM360.565 54.768C357.493 54.768 354.783 54.0427 352.437 52.592C350.09 51.1413 348.255 49.1573 346.933 46.64C345.61 44.1227 344.949 41.264 344.949 38.064C344.949 34.864 345.61 32.0267 346.933 29.552C348.255 27.0347 350.09 25.072 352.437 23.664C354.826 22.2133 357.557 21.488 360.628 21.488C363.146 21.488 365.343 21.9787 367.221 22.96C369.141 23.9413 370.634 25.328 371.701 27.12V7.92H378.485V54H372.405L371.701 49.072C370.677 50.5653 369.269 51.888 367.477 53.04C365.685 54.192 363.381 54.768 360.565 54.768ZM361.781 48.88C364.682 48.88 367.05 47.8773 368.885 45.872C370.762 43.8667 371.701 41.2853 371.701 38.128C371.701 34.928 370.762 32.3467 368.885 30.384C367.05 28.3787 364.682 27.376 361.781 27.376C358.879 27.376 356.49 28.3787 354.613 30.384C352.735 32.3467 351.797 34.928 351.797 38.128C351.797 40.2187 352.223 42.0747 353.077 43.696C353.93 45.3173 355.103 46.5973 356.597 47.536C358.133 48.432 359.861 48.88 361.781 48.88Z" fill="black"/>
<defs>
<linearGradient id="paint0_linear_22_138" x1="2.31705e-06" y1="63.9853" x2="62.1034" y2="-2.41581e-05" gradientUnits="userSpaceOnUse">
<stop stop-color="#547AFF"/>
<stop offset="1" stop-color="#413DFF"/>
</linearGradient>
<clipPath id="clip0_22_138">
<rect width="63" height="63.1647" rx="8" fill="white"/>
</clipPath>
</defs>
</svg>
