<svg width="325" height="186" viewBox="0 0 325 186" fill="none" xmlns="http://www.w3.org/2000/svg">
<rect width="325" height="186" rx="16" fill="url(#paint0_linear_21_129)"/>
<rect width="325" height="186" rx="16" fill="url(#paint1_linear_21_129)"/>
<g clip-path="url(#clip0_21_129)">
<path fill-rule="evenodd" clip-rule="evenodd" d="M12.5544 28.9083C12.5544 22.8838 17.4255 18 23.4343 18H35.151C41.1598 18 46.0309 22.8838 46.0309 28.9083V40.6556C46.0309 46.6801 41.1598 51.5639 35.151 51.5639H23.4343C17.4255 51.5639 12.5544 46.6801 12.5544 40.6556V28.9083ZM37.3156 23.5735C37.8697 23.3211 38.4987 23.7273 38.4987 24.3375V34.6246C38.4987 34.9537 38.3068 35.2524 38.0079 35.3886L31.3127 38.4385C30.7586 38.6909 30.1296 38.2848 30.1296 37.6746V27.3874C30.1296 27.0583 30.3214 26.7596 30.6203 26.6235L37.3156 23.5735ZM21.2804 23.5988C20.7253 23.3365 20.0866 23.7425 20.0866 24.3578V43.7197C20.0866 44.0445 20.2736 44.3402 20.5667 44.4787L27.262 47.6433C27.8171 47.9057 28.4557 47.4996 28.4557 46.8843V27.5224C28.4557 27.1976 28.2687 26.902 27.9757 26.7634L21.2804 23.5988Z" fill="#FCFCFC"/>
</g>
<path d="M56.6218 42V32.176H53.3098V30.8H61.6138V32.176H58.3178V42H56.6218ZM62.2932 42V34.064H63.8132L63.9572 35.568C64.2345 35.0453 64.6185 34.6347 65.1092 34.336C65.6105 34.0267 66.2132 33.872 66.9172 33.872V35.648H66.4532C65.9839 35.648 65.5625 35.728 65.1892 35.888C64.8265 36.0373 64.5332 36.2987 64.3092 36.672C64.0959 37.0347 63.9892 37.5413 63.9892 38.192V42H62.2932ZM71.0593 42.192C70.3873 42.192 69.8326 42.08 69.3953 41.856C68.958 41.632 68.6326 41.3387 68.4193 40.976C68.206 40.6027 68.0993 40.1973 68.0993 39.76C68.0993 38.992 68.398 38.384 68.9953 37.936C69.5926 37.488 70.446 37.264 71.5553 37.264H73.6353V37.12C73.6353 36.5013 73.4647 36.0373 73.1233 35.728C72.7926 35.4187 72.3606 35.264 71.8273 35.264C71.358 35.264 70.9473 35.3813 70.5953 35.616C70.254 35.84 70.046 36.176 69.9713 36.624H68.2753C68.3286 36.048 68.5206 35.5573 68.8513 35.152C69.1926 34.736 69.6193 34.4213 70.1313 34.208C70.654 33.984 71.2246 33.872 71.8433 33.872C72.9526 33.872 73.8113 34.1653 74.4193 34.752C75.0273 35.328 75.3313 36.1173 75.3313 37.12V42H73.8593L73.7153 40.64C73.4913 41.0773 73.166 41.4453 72.7393 41.744C72.3126 42.0427 71.7526 42.192 71.0593 42.192ZM71.3953 40.816C71.854 40.816 72.238 40.7093 72.5473 40.496C72.8673 40.272 73.1126 39.9787 73.2833 39.616C73.4647 39.2533 73.5767 38.8533 73.6193 38.416H71.7313C71.0593 38.416 70.5793 38.5333 70.2913 38.768C70.014 39.0027 69.8753 39.296 69.8753 39.648C69.8753 40.0107 70.0086 40.2987 70.2753 40.512C70.5526 40.7147 70.926 40.816 71.3953 40.816ZM77.3088 42V34.064H78.8128L78.9408 35.456C79.1861 34.9653 79.5435 34.5813 80.0128 34.304C80.4928 34.016 81.0422 33.872 81.6608 33.872C82.6208 33.872 83.3728 34.1707 83.9168 34.768C84.4715 35.3653 84.7488 36.256 84.7488 37.44V42H83.0688V37.616C83.0688 36.08 82.4395 35.312 81.1808 35.312C80.5515 35.312 80.0288 35.536 79.6128 35.984C79.2075 36.432 79.0048 37.072 79.0048 37.904V42H77.3088ZM89.9143 42.192C88.9116 42.192 88.085 41.9467 87.4343 41.456C86.7836 40.9653 86.4103 40.3147 86.3143 39.504H88.0263C88.1116 39.8667 88.3143 40.1813 88.6343 40.448C88.9543 40.704 89.3756 40.832 89.8983 40.832C90.4103 40.832 90.7836 40.7253 91.0183 40.512C91.253 40.2987 91.3703 40.0533 91.3703 39.776C91.3703 39.3707 91.205 39.0987 90.8743 38.96C90.5543 38.8107 90.1063 38.6773 89.5303 38.56C89.0823 38.464 88.6343 38.336 88.1863 38.176C87.749 38.016 87.381 37.792 87.0823 37.504C86.7943 37.2053 86.6503 36.8053 86.6503 36.304C86.6503 35.6107 86.917 35.0347 87.4503 34.576C87.9836 34.1067 88.7303 33.872 89.6903 33.872C90.5757 33.872 91.2903 34.0853 91.8343 34.512C92.389 34.9387 92.7143 35.5413 92.8103 36.32H91.1783C91.125 35.9787 90.965 35.712 90.6983 35.52C90.4423 35.328 90.0957 35.232 89.6583 35.232C89.2316 35.232 88.901 35.3227 88.6663 35.504C88.4316 35.6747 88.3143 35.8987 88.3143 36.176C88.3143 36.4533 88.4743 36.672 88.7943 36.832C89.125 36.992 89.557 37.136 90.0903 37.264C90.6236 37.3813 91.1143 37.52 91.5623 37.68C92.021 37.8293 92.389 38.0533 92.6663 38.352C92.9437 38.6507 93.0823 39.088 93.0823 39.664C93.093 40.3893 92.8103 40.992 92.2343 41.472C91.669 41.952 90.8957 42.192 89.9143 42.192ZM99.9898 42.192C98.8805 42.192 97.9205 41.952 97.1098 41.472C96.3098 40.9813 95.6911 40.304 95.2538 39.44C94.8165 38.5653 94.5978 37.5573 94.5978 36.416C94.5978 35.264 94.8165 34.256 95.2538 33.392C95.6911 32.5173 96.3098 31.8347 97.1098 31.344C97.9205 30.8533 98.8805 30.608 99.9898 30.608C101.302 30.608 102.374 30.928 103.206 31.568C104.038 32.208 104.566 33.104 104.79 34.256H102.902C102.752 33.6053 102.432 33.088 101.942 32.704C101.451 32.32 100.795 32.128 99.9738 32.128C98.8538 32.128 97.9685 32.512 97.3178 33.28C96.6671 34.0373 96.3418 35.0827 96.3418 36.416C96.3418 37.7387 96.6671 38.7787 97.3178 39.536C97.9685 40.2933 98.8538 40.672 99.9738 40.672C100.795 40.672 101.451 40.4907 101.942 40.128C102.432 39.7653 102.752 39.2693 102.902 38.64H104.79C104.566 39.7493 104.038 40.6187 103.206 41.248C102.374 41.8773 101.302 42.192 99.9898 42.192ZM109.278 42.192C108.606 42.192 108.051 42.08 107.614 41.856C107.177 41.632 106.851 41.3387 106.638 40.976C106.425 40.6027 106.318 40.1973 106.318 39.76C106.318 38.992 106.617 38.384 107.214 37.936C107.811 37.488 108.665 37.264 109.774 37.264H111.854V37.12C111.854 36.5013 111.683 36.0373 111.342 35.728C111.011 35.4187 110.579 35.264 110.046 35.264C109.577 35.264 109.166 35.3813 108.814 35.616C108.473 35.84 108.265 36.176 108.19 36.624H106.494C106.547 36.048 106.739 35.5573 107.07 35.152C107.411 34.736 107.838 34.4213 108.35 34.208C108.873 33.984 109.443 33.872 110.062 33.872C111.171 33.872 112.03 34.1653 112.638 34.752C113.246 35.328 113.55 36.1173 113.55 37.12V42H112.078L111.934 40.64C111.71 41.0773 111.385 41.4453 110.958 41.744C110.531 42.0427 109.971 42.192 109.278 42.192ZM109.614 40.816C110.073 40.816 110.457 40.7093 110.766 40.496C111.086 40.272 111.331 39.9787 111.502 39.616C111.683 39.2533 111.795 38.8533 111.838 38.416H109.95C109.278 38.416 108.798 38.5333 108.51 38.768C108.233 39.0027 108.094 39.296 108.094 39.648C108.094 40.0107 108.227 40.2987 108.494 40.512C108.771 40.7147 109.145 40.816 109.614 40.816ZM115.528 42V34.064H117.048L117.192 35.568C117.469 35.0453 117.853 34.6347 118.344 34.336C118.845 34.0267 119.448 33.872 120.152 33.872V35.648H119.688C119.218 35.648 118.797 35.728 118.424 35.888C118.061 36.0373 117.768 36.2987 117.544 36.672C117.33 37.0347 117.224 37.5413 117.224 38.192V42H115.528ZM125.003 42.192C124.235 42.192 123.558 42.0107 122.971 41.648C122.384 41.2853 121.926 40.7893 121.595 40.16C121.264 39.5307 121.099 38.816 121.099 38.016C121.099 37.216 121.264 36.5067 121.595 35.888C121.926 35.2587 122.384 34.768 122.971 34.416C123.568 34.0533 124.251 33.872 125.019 33.872C125.648 33.872 126.198 33.9947 126.667 34.24C127.147 34.4853 127.52 34.832 127.787 35.28V30.48H129.483V42H127.963L127.787 40.768C127.531 41.1413 127.179 41.472 126.731 41.76C126.283 42.048 125.707 42.192 125.003 42.192ZM125.307 40.72C126.032 40.72 126.624 40.4693 127.083 39.968C127.552 39.4667 127.787 38.8213 127.787 38.032C127.787 37.232 127.552 36.5867 127.083 36.096C126.624 35.5947 126.032 35.344 125.307 35.344C124.582 35.344 123.984 35.5947 123.515 36.096C123.046 36.5867 122.811 37.232 122.811 38.032C122.811 38.5547 122.918 39.0187 123.131 39.424C123.344 39.8293 123.638 40.1493 124.011 40.384C124.395 40.608 124.827 40.72 125.307 40.72Z" fill="white"/>
<defs>
<linearGradient id="paint0_linear_21_129" x1="325" y1="0" x2="-10.7208" y2="164.062" gradientUnits="userSpaceOnUse">
<stop stop-color="#547AFF"/>
<stop offset="1" stop-color="#413DFF"/>
</linearGradient>
<linearGradient id="paint1_linear_21_129" x1="-2.69798" y1="182.879" x2="174.394" y2="-102.852" gradientUnits="userSpaceOnUse">
<stop stop-color="#5873D4"/>
<stop offset="1"/>
</linearGradient>
<clipPath id="clip0_21_129">
<rect x="12.5544" y="18" width="33.4764" height="33.5639" rx="8" fill="white"/>
</clipPath>
</defs>
</svg>
